<?xml version="1.0" encoding="utf-8"?>
<!-- Generator: Adobe Illustrator 24.0.2, SVG Export Plug-In . SVG Version: 6.00 Build 0)  -->
<svg version="1.1" id="Livello_1" xmlns="http://www.w3.org/2000/svg" xmlns:xlink="http://www.w3.org/1999/xlink" x="0px" y="0px"
	 width="48px" height="48px" viewBox="0 0 48 48" style="enable-background:new 0 0 48 48;" xml:space="preserve">
<style type="text/css">
	.st0{fill:#0152E8;}
</style>
<g id="surface1">
	<path class="st0" d="M23.27,44.54c-6.72,0-12.95-3.57-16.32-9.54c-3.77-6.67-3.11-14.84,1.68-20.82l2.09,1.67
		c-4.1,5.12-4.67,12.13-1.44,17.85s9.54,8.88,16.07,8.05l0.34,2.64C24.87,44.48,24.06,44.54,23.27,44.54z"/>
	<path class="st0" d="M13.72,19.97L3.25,12.01L15.4,6.96L13.72,19.97z M8.55,12.69l3.11,2.37l0.5-3.87L8.55,12.69z"/>
	<path class="st0" d="M39.38,33.83l-2.09-1.67c4.1-5.12,4.67-12.13,1.44-17.85s-9.54-8.88-16.07-8.05l-0.34-2.64
		C29.94,2.65,37.29,6.33,41.05,13C44.82,19.67,44.16,27.84,39.38,33.83z"/>
	<path class="st0" d="M32.6,41.04l1.68-13.01l10.47,7.96L32.6,41.04z M36.34,32.95l-0.5,3.87l3.61-1.5L36.34,32.95z"/>
</g>
</svg>
